<?xml version="1.0" encoding="UTF-8" standalone="no"?>
<!-- Uploaded to: SVG Repo, www.svgrepo.com, Generator: SVG Repo Mixer Tools -->

<svg
   width="20"
   height="15"
   viewBox="0 -4 0.69999998 0.52499996"
   fill="none"
   version="1.1"
   id="svg655"
   sodipodi:docname="en.svg"
   inkscape:version="1.1.2 (0a00cf5339, 2022-02-04)"
   xmlns:inkscape="http://www.inkscape.org/namespaces/inkscape"
   xmlns:sodipodi="http://sodipodi.sourceforge.net/DTD/sodipodi-0.dtd"
   xmlns="http://www.w3.org/2000/svg"
   xmlns:svg="http://www.w3.org/2000/svg">
  <sodipodi:namedview
     id="namedview657"
     pagecolor="#505050"
     bordercolor="#ffffff"
     borderopacity="1"
     inkscape:pageshadow="0"
     inkscape:pageopacity="0"
     inkscape:pagecheckerboard="1"
     showgrid="false"
     fit-margin-top="0"
     fit-margin-left="0"
     fit-margin-right="0"
     fit-margin-bottom="0"
     inkscape:zoom="20.325052"
     inkscape:cx="2.140216"
     inkscape:cy="9.3726699"
     inkscape:window-width="1366"
     inkscape:window-height="708"
     inkscape:window-x="0"
     inkscape:window-y="0"
     inkscape:window-maximized="1"
     inkscape:current-layer="svg655" />
  <g
     mask="url(#mask0_503_2952)"
     id="g646"
     transform="matrix(0.02484852,0,0,0.02608643,9.1361586e-4,-3.9974226)">
    <rect
       width="28"
       height="20"
       fill="#0a17a7"
       id="rect632"
       x="0"
       y="0" />
    <path
       fill-rule="evenodd"
       clip-rule="evenodd"
       d="M -1.28244,-1.91644 10.6667,6.14335 v -7.47668 h 6.6667 V 6.14335 L 29.2825,-1.91644 30.7737,0.294324 21.3263,6.66667 H 28 v 6.66663 h -6.6737 l 9.4474,6.3724 -1.4912,2.2108 -11.9491,-8.0598 v 7.4766 H 10.6667 V 13.8567 L -1.28244,21.9165 -2.77362,19.7057 6.67377,13.3333 H 2.95639e-5 V 6.66667 H 6.67377 L -2.77362,0.294324 Z"
       fill="#ffffff"
       id="path634" />
    <path
       d="M 18.668,6.33219 31.3333,-2"
       stroke="#db1f35"
       stroke-width="0.666667"
       stroke-linecap="round"
       id="path636" />
    <path
       d="m 20.0128,13.6975 11.3538,7.6528"
       stroke="#db1f35"
       stroke-width="0.666667"
       stroke-linecap="round"
       id="path638" />
    <path
       d="M 8.00555,6.31046 -3.83746,-1.67099"
       stroke="#db1f35"
       stroke-width="0.666667"
       stroke-linecap="round"
       id="path640" />
    <path
       d="M 9.29006,13.6049 -3.83746,22.3105"
       stroke="#db1f35"
       stroke-width="0.666667"
       stroke-linecap="round"
       id="path642" />
    <path
       fill-rule="evenodd"
       clip-rule="evenodd"
       d="m 0,12 h 12 v 8 h 4 V 12 H 28 V 8 H 16 V 0 H 12 V 8 H 0 Z"
       fill="#e6273e"
       id="path644" />
  </g>
  <defs
     id="defs653">
    <clipPath
       id="clip0_503_2952">
      <rect
         width="28"
         height="20"
         rx="2"
         fill="#ffffff"
         id="rect650"
         x="0"
         y="0" />
    </clipPath>
    <mask
       id="mask0_503_2952"
       maskUnits="userSpaceOnUse"
       x="0"
       y="0"
       width="28"
       height="20">
      <rect
         width="28"
         height="20"
         rx="2"
         fill="#ffffff"
         id="rect629"
         x="0"
         y="0" />
    </mask>
  </defs>
</svg>
