<?xml version="1.0" encoding="UTF-8" standalone="no"?>
<!-- Uploaded to: SVG Repo, www.svgrepo.com, Generator: SVG Repo Mixer Tools -->

<svg
   width="41"
   height="60"
   viewBox="0 0 1.23 1.8"
   fill="none"
   version="1.1"
   id="svg200"
   sodipodi:docname="flag.svg"
   inkscape:version="1.1.2 (0a00cf5339, 2022-02-04)"
   xmlns:inkscape="http://www.inkscape.org/namespaces/inkscape"
   xmlns:sodipodi="http://sodipodi.sourceforge.net/DTD/sodipodi-0.dtd"
   xmlns="http://www.w3.org/2000/svg"
   xmlns:svg="http://www.w3.org/2000/svg">
  <defs
     id="defs204" />
  <sodipodi:namedview
     id="namedview202"
     pagecolor="#505050"
     bordercolor="#ffffff"
     borderopacity="1"
     inkscape:pageshadow="0"
     inkscape:pageopacity="0"
     inkscape:pagecheckerboard="1"
     showgrid="false"
     fit-margin-top="0"
     fit-margin-left="0"
     fit-margin-right="0"
     fit-margin-bottom="0"
     inkscape:zoom="0.89641949"
     inkscape:cx="-460.16402"
     inkscape:cy="-46.29529"
     inkscape:window-width="1366"
     inkscape:window-height="708"
     inkscape:window-x="0"
     inkscape:window-y="0"
     inkscape:window-maximized="1"
     inkscape:current-layer="svg200"
     width="41px" />
  <path
     d="M 0.061896,1.712485 V 1.052264 m 0,0 V 0.226987 m 0,0.825277 0.203899,-0.04078 c 0.136214,-0.02724 0.277411,-0.01429 0.406385,0.03731 0.139769,0.0559 0.293592,0.06634 0.439633,0.02983 l 0.0083,-0.0021 c 0.04837,-0.01209 0.0713,-0.06747 0.04565,-0.110224 L 1.036971,0.751638 c -0.02818,-0.04697 -0.04228,-0.07046 -0.04562,-0.096 -0.0014,-0.01066 -0.0014,-0.02145 0,-0.03211 0.0033,-0.02555 0.01744,-0.04903 0.04562,-0.096 L 1.142482,0.351671 c 0.02761,-0.04603 -0.0142,-0.102466 -0.06628,-0.08945 -0.122867,0.03072 -0.252287,0.02193 -0.36988,-0.0251 L 0.672212,0.223481 C 0.543238,0.171891 0.402041,0.158931 0.265827,0.186171 l -0.203899,0.04078 m 0,0 V 0.061896"
     stroke="#1c274c"
     stroke-width="0.123792"
     stroke-linecap="round"
     id="path198" />
</svg>
