<?xml version="1.0" encoding="UTF-8" standalone="no"?>
<!-- Created with Inkscape (http://www.inkscape.org/) -->

<svg
   width="205.70737mm"
   height="255.38356mm"
   viewBox="0 0 205.70737 255.38356"
   version="1.1"
   id="svg2068"
   inkscape:version="1.1.2 (0a00cf5339, 2022-02-04)"
   sodipodi:docname="logo.svg"
   xmlns:inkscape="http://www.inkscape.org/namespaces/inkscape"
   xmlns:sodipodi="http://sodipodi.sourceforge.net/DTD/sodipodi-0.dtd"
   xmlns="http://www.w3.org/2000/svg"
   xmlns:svg="http://www.w3.org/2000/svg">
  <sodipodi:namedview
     id="namedview2070"
     pagecolor="#505050"
     bordercolor="#ffffff"
     borderopacity="1"
     inkscape:pageshadow="0"
     inkscape:pageopacity="0"
     inkscape:pagecheckerboard="1"
     inkscape:document-units="mm"
     showgrid="false"
     inkscape:zoom="0.46947952"
     inkscape:cx="397.24843"
     inkscape:cy="382.3383"
     inkscape:window-width="1366"
     inkscape:window-height="708"
     inkscape:window-x="0"
     inkscape:window-y="0"
     inkscape:window-maximized="1"
     inkscape:current-layer="layer1"
     fit-margin-top="0"
     fit-margin-left="0"
     fit-margin-right="0"
     fit-margin-bottom="0" />
  <defs
     id="defs2065" />
  <g
     inkscape:label="Calque 1"
     inkscape:groupmode="layer"
     id="layer1">
    <path
       d="m 202.06748,157.97354 -123.537466,42.7186 c -2.287167,33.23158 -35.068766,52.86874 -39.135592,52.74017 8.18102,3.35632 15.326725,7.37916 143.381008,-34.62892 35.35297,-11.59486 19.29205,-60.82985 19.29205,-60.82985 z"
       fill="#39cccc"
       data-fill-palette-color="accent"
       id="path636"
       style="stroke-width:3.38338" />
    <g
       fill="#39cccc"
       data-fill-palette-color="accent"
       id="g644"
       transform="matrix(3.3833831,0,0,3.3833831,-66.316,-41.476893)">
      <path
         d="m 77.97,14.884 c -1.555,-1.766 -2.944,-2.625 -4.252,-2.625 -0.824,0 -1.413,0.354 -1.606,0.47 -0.444,0.264 -1.111,0.917 -1.049,2.445 l -4.564,3.739 c -0.679,-0.228 -1.331,-0.344 -1.941,-0.344 -1.939,0 -3.079,1.159 -3.433,1.822 -1.071,1.902 -0.587,4.305 1.356,6.837 L 51.718,40.312 65.929,30.495 c 1.126,0.745 2.595,1.448 4.117,1.448 0.904,0 1.731,-0.245 2.47,-0.738 1.814,-1.238 1.462,-3.695 1.146,-4.909 l 3.825,-4.761 c 0.163,0.021 0.34,0.035 0.521,0.035 0.87,0 1.385,-0.345 1.659,-0.633 1.748,-1.824 0.04,-4.082 -1.697,-6.053 z"
         fill="#39cccc"
         data-fill-palette-color="accent"
         id="path638" />
      <path
         d="M 34.239,82.002 C 25.609,80.542 23.542,65.187 28.095,36.356 L 59.232,29.435 60.981,27.307 60.75,26.958 C 59.967,25.784 59.45,24.6 59.213,23.439 l -0.114,-0.564 -36.63,8.142 -0.365,2.128 c -1.349,7.873 -7.386,47.443 6.178,53.268 0.166,0.072 0.331,0.131 0.495,0.189 l 0.335,0.125 0.133,-0.013 c 1.087,-0.106 5.612,-3.086 5.561,-4.122 l -0.117,-0.515 z"
         fill="#39cccc"
         data-fill-palette-color="accent"
         id="path640" />
      <path
         d="m 67.98,32.879 -0.688,-0.23 -2.256,29.316 6.63,-2.291 2.112,-27.466 -0.899,0.462 c -1.449,0.745 -3.082,0.823 -4.899,0.209 z"
         fill="#39cccc"
         data-fill-palette-color="accent"
         id="path642" />
    </g>
    <path
       style="fill:#ffffff;stroke-width:2.13002"
       d="M 107.13615,944.65433 C 48.589794,915.21884 15.306178,837.00734 4.2579864,702.90606 1.264538,666.57204 1.2622238,558.62844 4.25394,514.17155 7.1441355,471.22324 13.793078,402.97351 19.258851,360.14988 25.110028,314.30665 36.454078,244.25857 38.373578,242.11884 39.246025,241.14629 144.31248,217.13883 271.85459,188.76893 l 231.89476,-51.58164 3.29807,11.87797 c 1.81397,6.53288 7.14468,19.02937 11.84604,27.76998 l 8.54795,15.89201 -10.69836,13.07102 -10.69835,13.07103 -194.97935,43.22176 c -107.23864,23.77198 -196.97704,43.93407 -199.41865,44.80467 -4.05806,1.44695 -5.10655,6.40074 -12.208862,57.6829 -9.741013,70.33485 -13.310296,102.18878 -17.622995,157.27587 -4.036717,51.56189 -4.622006,150.60259 -1.088819,184.24659 5.855457,55.7573 17.854688,102.5652 33.438716,130.44137 15.49636,27.71936 40.66272,48.7181 64.9412,54.18679 17.66159,3.97822 18.35018,6.429 5.67315,20.19119 -8.733,9.48059 -31.48748,26.11935 -45.78093,33.47646 -15.54215,7.99981 -16.44806,8.00714 -31.86201,0.25743 z"
       id="path3747"
       transform="scale(0.26458333)" />
    <path
       style="fill:#ffffff;stroke-width:2.13002"
       d="m 421.74364,348.3922 c 0,-0.67151 28.76251,-36.158 63.9167,-78.85889 l 63.9167,-77.63795 -8.40971,-13.01146 c -25.11554,-38.85862 -20.05951,-75.97267 12.63745,-92.765687 7.06793,-3.630061 18.18077,-4.291523 41.91761,-2.495038 5.76784,0.436531 10.85438,-2.803215 34.29465,-21.84314 27.48227,-22.323125 27.52594,-22.373019 29.97897,-34.249452 3.60086,-17.433649 14.20269,-25.8668625 32.34193,-25.7263556 17.34701,0.1343701 34.33101,11.2435336 56.87832,37.2038576 18.20044,20.955468 26.11043,36.244702 26.11043,50.468928 0,10.094609 -0.77269,11.907707 -8.26948,19.404517 -7.09852,7.09852 -9.59575,8.26948 -17.6358,8.26948 h -9.36633 l -24.88313,30.69949 -24.88313,30.69949 1.96302,12.0613 c 2.32372,14.27741 -0.22092,30.52053 -6.3298,40.4049 -4.90434,7.93538 -20.86951,17.16007 -33.07141,19.10865 -12.15175,1.9406 -29.56831,-1.96777 -46.57623,-10.45193 l -14.6957,-7.33074 -79.05998,54.57373 c -43.48299,30.01556 -81.69588,56.40153 -84.91753,58.63547 -3.22165,2.23396 -5.85755,3.51231 -5.85755,2.84083 z"
       id="path3786"
       transform="scale(0.26458333)" />
    <path
       style="fill:#ffffff;stroke-width:2.13002"
       d="m 582.56868,626.57162 c 0.58543,-4.29071 6.84146,-84.9612 13.90227,-179.26776 7.06082,-94.30656 13.31376,-174.48047 13.89543,-178.16422 l 1.05758,-6.69775 10.06324,3.22037 c 5.53479,1.7712 17.73132,3.29419 27.1034,3.38442 14.23089,0.137 19.11276,-0.78718 29.6121,-5.60586 6.91458,-3.17344 12.75443,-5.51648 12.97745,-5.20674 1.22785,1.70527 -26.54675,345.34192 -28.03095,346.80831 -0.97817,0.96643 -19.74845,7.96116 -41.71172,15.54383 l -39.93323,13.78667 z"
       id="path3825"
       transform="scale(0.26458333)" />
    <path
       style="fill:#ffffff;stroke-width:2.13002"
       d="m 166.67394,962.3528 c -6.15043,-1.12168 -11.1826,-2.73385 -11.1826,-3.58256 0,-0.8487 4.55292,-3.74738 10.11759,-6.44149 15.27135,-7.39357 34.47018,-21.75746 54.79035,-40.99219 42.89372,-40.60247 68.59462,-89.03858 76.71867,-144.58457 l 1.09836,-7.50969 229.5026,-79.2439 c 126.22645,-43.58414 230.83765,-79.50362 232.46936,-79.82106 6.42189,-1.24936 15.43179,49.50346 15.43826,86.96395 0.006,39.23748 -6.71213,67.11465 -21.86849,90.7338 -9.80201,15.27508 -29.83845,32.62696 -47.19718,40.87352 -19.84404,9.42724 -181.11265,61.15972 -295.46731,94.78136 -94.91418,27.9059 -164.23145,44.48531 -205.54678,49.16298 -21.81227,2.46956 -23.55018,2.45435 -38.87283,-0.34015 z"
       id="path3864"
       transform="scale(0.26458333)" />
  </g>
</svg>
