<?xml version="1.0" encoding="UTF-8" standalone="no"?>
<!-- Created with Inkscape (http://www.inkscape.org/) -->

<svg
   width="109.24787"
   height="135.63011"
   viewBox="0 0 28.905166 35.885468"
   version="1.1"
   id="svg2068"
   inkscape:version="1.1.2 (0a00cf5339, 2022-02-04)"
   sodipodi:docname="logo_small.svg"
   xmlns:inkscape="http://www.inkscape.org/namespaces/inkscape"
   xmlns:sodipodi="http://sodipodi.sourceforge.net/DTD/sodipodi-0.dtd"
   xmlns="http://www.w3.org/2000/svg"
   xmlns:svg="http://www.w3.org/2000/svg">
  <sodipodi:namedview
     id="namedview2070"
     pagecolor="#505050"
     bordercolor="#ffffff"
     borderopacity="1"
     inkscape:pageshadow="0"
     inkscape:pageopacity="0"
     inkscape:pagecheckerboard="1"
     inkscape:document-units="mm"
     showgrid="false"
     inkscape:zoom="0.46947952"
     inkscape:cx="-465.40901"
     inkscape:cy="-239.62707"
     inkscape:window-width="1366"
     inkscape:window-height="708"
     inkscape:window-x="0"
     inkscape:window-y="0"
     inkscape:window-maximized="1"
     inkscape:current-layer="layer1"
     fit-margin-top="0"
     fit-margin-left="0"
     fit-margin-right="0"
     fit-margin-bottom="0"
     units="px"
     width="50px" />
  <defs
     id="defs2065" />
  <g
     inkscape:label="Calque 1"
     inkscape:groupmode="layer"
     id="layer1"
     transform="translate(-176.8022,-219.4981)">
    <path
       d="m 205.1959,241.6959 -17.35898,6.00264 c -0.32139,4.66957 -4.92772,7.42891 -5.49918,7.41084 1.14957,0.47162 2.15365,1.03689 20.14732,-4.86592 4.96766,-1.62926 2.71084,-8.54756 2.71084,-8.54756 z"
       fill="#39cccc"
       data-fill-palette-color="accent"
       id="path636"
       style="stroke-width:0.475419" />
    <g
       fill="#39cccc"
       data-fill-palette-color="accent"
       id="g644"
       transform="matrix(0.47541936,0,0,0.47541936,167.48374,213.66993)">
      <path
         d="m 77.97,14.884 c -1.555,-1.766 -2.944,-2.625 -4.252,-2.625 -0.824,0 -1.413,0.354 -1.606,0.47 -0.444,0.264 -1.111,0.917 -1.049,2.445 l -4.564,3.739 c -0.679,-0.228 -1.331,-0.344 -1.941,-0.344 -1.939,0 -3.079,1.159 -3.433,1.822 -1.071,1.902 -0.587,4.305 1.356,6.837 L 51.718,40.312 65.929,30.495 c 1.126,0.745 2.595,1.448 4.117,1.448 0.904,0 1.731,-0.245 2.47,-0.738 1.814,-1.238 1.462,-3.695 1.146,-4.909 l 3.825,-4.761 c 0.163,0.021 0.34,0.035 0.521,0.035 0.87,0 1.385,-0.345 1.659,-0.633 1.748,-1.824 0.04,-4.082 -1.697,-6.053 z"
         fill="#39cccc"
         data-fill-palette-color="accent"
         id="path638" />
      <path
         d="M 34.239,82.002 C 25.609,80.542 23.542,65.187 28.095,36.356 L 59.232,29.435 60.981,27.307 60.75,26.958 C 59.967,25.784 59.45,24.6 59.213,23.439 l -0.114,-0.564 -36.63,8.142 -0.365,2.128 c -1.349,7.873 -7.386,47.443 6.178,53.268 0.166,0.072 0.331,0.131 0.495,0.189 l 0.335,0.125 0.133,-0.013 c 1.087,-0.106 5.612,-3.086 5.561,-4.122 l -0.117,-0.515 z"
         fill="#39cccc"
         data-fill-palette-color="accent"
         id="path640" />
      <path
         d="m 67.98,32.879 -0.688,-0.23 -2.256,29.316 6.63,-2.291 2.112,-27.466 -0.899,0.462 c -1.449,0.745 -3.082,0.823 -4.899,0.209 z"
         fill="#39cccc"
         data-fill-palette-color="accent"
         id="path642" />
    </g>
    <path
       style="fill:#ffffff;stroke-width:0.0791904"
       d="m 180.78532,254.61863 c -2.17664,-1.09436 -3.41407,-4.00212 -3.82482,-8.98777 -0.11129,-1.35083 -0.11138,-5.36398 -1.5e-4,-7.0168 0.10745,-1.59674 0.35465,-4.13414 0.55785,-5.72625 0.21754,-1.70436 0.63929,-4.30863 0.71066,-4.38818 0.0324,-0.0361 3.93861,-0.9287 8.6804,-1.98345 l 8.62142,-1.91771 0.12262,0.4416 c 0.0674,0.24288 0.26563,0.70748 0.44041,1.03244 l 0.3178,0.59083 -0.39775,0.48596 -0.39774,0.48596 -7.24898,1.60691 c -3.98694,0.88379 -7.32325,1.63338 -7.41402,1.66575 -0.15087,0.0538 -0.18985,0.23797 -0.45391,2.14455 -0.36215,2.61492 -0.49485,3.79919 -0.65519,5.84723 -0.15007,1.91697 -0.17183,5.59913 -0.0405,6.84995 0.21769,2.07296 0.6638,3.81319 1.24318,4.84958 0.57613,1.03055 1.51177,1.81124 2.4144,2.01456 0.65663,0.14791 0.68223,0.23902 0.21092,0.75067 -0.32468,0.35247 -1.17065,0.97107 -1.70205,1.2446 -0.57783,0.29741 -0.61151,0.29769 -1.18458,0.01 z"
       id="path3747" />
    <path
       style="fill:#ffffff;stroke-width:0.0791904"
       d="m 192.48186,232.45068 c 0,-0.025 1.06933,-1.34428 2.37631,-2.93182 l 2.3763,-2.88644 -0.31266,-0.48375 c -0.93375,-1.44469 -0.74577,-2.82452 0.46984,-3.44885 0.26277,-0.13496 0.67593,-0.15956 1.55842,-0.0928 0.21444,0.0162 0.40355,-0.10422 1.27501,-0.81208 1.02175,-0.82994 1.02337,-0.83179 1.11457,-1.27334 0.13387,-0.64815 0.52803,-0.96168 1.20241,-0.95646 0.64493,0.005 1.27637,0.41802 2.11463,1.38317 0.67666,0.77909 0.97074,1.34752 0.97074,1.87635 0,0.3753 -0.0287,0.44271 -0.30744,0.72142 -0.26391,0.26391 -0.35675,0.30745 -0.65567,0.30745 h -0.34822 l -0.92511,1.14135 -0.92511,1.14135 0.073,0.44842 c 0.0864,0.53081 -0.008,1.13469 -0.23533,1.50218 -0.18233,0.29502 -0.77589,0.63798 -1.22953,0.71042 -0.45178,0.0721 -1.0993,-0.0731 -1.73163,-0.38858 l -0.54636,-0.27254 -2.9393,2.02895 c -1.61662,1.11592 -3.0373,2.0969 -3.15708,2.17996 -0.11977,0.0831 -0.21777,0.13058 -0.21777,0.10561 z"
       id="path3786" />
    <path
       style="fill:#ffffff;stroke-width:0.0791904"
       d="m 198.46104,242.79289 c 0.0218,-0.15952 0.25435,-3.1587 0.51686,-6.66485 0.26251,-3.50615 0.49498,-6.48686 0.51661,-6.62382 l 0.0393,-0.24901 0.37413,0.11973 c 0.20578,0.0658 0.65922,0.12247 1.00766,0.12582 0.52908,0.005 0.71057,-0.0293 1.10092,-0.20841 0.25707,-0.11798 0.47419,-0.2051 0.48248,-0.19358 0.0456,0.0634 -0.98696,12.83918 -1.04214,12.8937 -0.0363,0.036 -0.73421,0.29599 -1.55077,0.5779 l -1.48464,0.51256 z"
       id="path3825" />
    <path
       style="fill:#ffffff;stroke-width:0.0791904"
       d="m 182.99883,255.27662 c -0.22866,-0.0417 -0.41575,-0.10163 -0.41575,-0.13319 0,-0.0315 0.16927,-0.13932 0.37615,-0.23948 0.56777,-0.27488 1.28154,-0.80891 2.03701,-1.52402 1.59471,-1.50952 2.55022,-3.31029 2.85226,-5.37539 l 0.0408,-0.27919 8.53249,-2.94615 c 4.69286,-1.62038 8.58212,-2.9558 8.64278,-2.9676 0.23876,-0.0464 0.57373,1.84045 0.57397,3.23316 2.2e-4,1.45878 -0.24954,2.4952 -0.81303,3.37332 -0.36442,0.5679 -1.10934,1.21301 -1.75471,1.5196 -0.73776,0.35049 -6.73343,2.27381 -10.98493,3.5238 -3.52874,1.03749 -6.10583,1.65388 -7.64186,1.82779 -0.81094,0.0918 -0.87555,0.0913 -1.44522,-0.0126 z"
       id="path3864" />
  </g>
</svg>
