<?xml version="1.0" encoding="UTF-8" standalone="no"?>
<!-- Uploaded to: SVG Repo, www.svgrepo.com, Generator: SVG Repo Mixer Tools -->

<svg
   width="16.25"
   height="20"
   viewBox="-3 0 0.65 0.8"
   version="1.1"
   id="svg120"
   sodipodi:docname="trash.svg"
   inkscape:version="1.1.2 (0a00cf5339, 2022-02-04)"
   xmlns:inkscape="http://www.inkscape.org/namespaces/inkscape"
   xmlns:sodipodi="http://sodipodi.sourceforge.net/DTD/sodipodi-0.dtd"
   xmlns="http://www.w3.org/2000/svg"
   xmlns:svg="http://www.w3.org/2000/svg"
   xmlns:rdf="http://www.w3.org/1999/02/22-rdf-syntax-ns#"
   xmlns:cc="http://creativecommons.org/ns#"
   xmlns:dc="http://purl.org/dc/elements/1.1/"
   xmlns:sketch="http://www.bohemiancoding.com/sketch/ns">
  <sodipodi:namedview
     id="namedview122"
     pagecolor="#505050"
     bordercolor="#ffffff"
     borderopacity="1"
     inkscape:pageshadow="0"
     inkscape:pageopacity="0"
     inkscape:pagecheckerboard="1"
     showgrid="false"
     fit-margin-top="0"
     fit-margin-left="0"
     fit-margin-right="0"
     fit-margin-bottom="0"
     inkscape:zoom="0.8359833"
     inkscape:cx="-2.9904904"
     inkscape:cy="-120.21771"
     inkscape:window-width="1366"
     inkscape:window-height="708"
     inkscape:window-x="0"
     inkscape:window-y="0"
     inkscape:window-maximized="1"
     inkscape:current-layer="svg120" />
  <title
     id="title111">trash</title>
  <desc
     id="desc113">Created with Sketch Beta.</desc>
  <defs
     id="defs115" />
  <g
     id="Page-1"
     stroke="none"
     stroke-width="1"
     fill="none"
     fill-rule="evenodd"
     sketch:type="MSPage"
     transform="matrix(0.025,0,0,0.025,-3,0)">
    <g
       id="Icon-Set"
       sketch:type="MSLayerGroup"
       transform="translate(-259,-203)"
       fill="#000000">
      <path
         d="m 282,211 h -20 c -0.552,0 -1,-0.447 -1,-1 0,-0.552 0.448,-1 1,-1 h 20 c 0.552,0 1,0.448 1,1 0,0.553 -0.448,1 -1,1 z m -1,20 c 0,1.104 -0.896,2 -2,2 h -14 c -1.104,0 -2,-0.896 -2,-2 v -18 h 18 z m -12,-25 c 0,-0.553 0.448,-1 1,-1 h 4 c 0.552,0 1,0.447 1,1 v 1 h -6 z m 14,1 h -6 v -2 c 0,-1.104 -0.896,-2 -2,-2 h -6 c -1.104,0 -2,0.896 -2,2 v 2 h -6 c -1.104,0 -2,0.896 -2,2 v 2 c 0,1.104 0.896,2 2,2 v 18 c 0,2.209 1.791,4 4,4 h 14 c 2.209,0 4,-1.791 4,-4 v -18 c 1.104,0 2,-0.896 2,-2 v -2 c 0,-1.104 -0.896,-2 -2,-2 z m -11,24 c 0.552,0 1,-0.447 1,-1 v -12 c 0,-0.552 -0.448,-1 -1,-1 -0.552,0 -1,0.448 -1,1 v 12 c 0,0.553 0.448,1 1,1 z m -5,0 c 0.552,0 1,-0.447 1,-1 v -12 c 0,-0.552 -0.448,-1 -1,-1 -0.552,0 -1,0.448 -1,1 v 12 c 0,0.553 0.448,1 1,1 z m 10,0 c 0.552,0 1,-0.447 1,-1 v -12 c 0,-0.552 -0.448,-1 -1,-1 -0.552,0 -1,0.448 -1,1 v 12 c 0,0.553 0.448,1 1,1 z"
         id="trash"
         sketch:type="MSShapeGroup" />
    </g>
  </g>
  <metadata
     id="metadata124">
    <rdf:RDF>
      <cc:Work
         rdf:about="">
        <dc:title>trash</dc:title>
      </cc:Work>
    </rdf:RDF>
  </metadata>
</svg>
